<svg width="126" height="126" viewBox="0 0 126 126" fill="none" xmlns="http://www.w3.org/2000/svg">
<path opacity="0.5" fill-rule="evenodd" clip-rule="evenodd" d="M124.635 125.606C124.273 125.606 123.926 125.462 123.67 125.206C123.414 124.95 123.27 124.602 123.27 124.24C123.27 123.878 123.414 123.531 123.67 123.275C123.926 123.019 124.273 122.875 124.635 122.875C124.997 122.875 125.344 123.019 125.6 123.275C125.856 123.531 126 123.878 126 124.24C126 124.602 125.856 124.95 125.6 125.206C125.344 125.462 124.997 125.606 124.635 125.606ZM110.984 111.954C110.622 111.954 110.275 111.811 110.019 111.555C109.763 111.299 109.619 110.951 109.619 110.589C109.619 110.227 109.763 109.88 110.019 109.624C110.275 109.368 110.622 109.224 110.984 109.224C111.346 109.224 111.693 109.368 111.949 109.624C112.205 109.88 112.349 110.227 112.349 110.589C112.349 110.951 112.205 111.299 111.949 111.555C111.693 111.811 111.346 111.954 110.984 111.954ZM110.984 125.606C110.622 125.606 110.275 125.462 110.019 125.206C109.763 124.95 109.619 124.602 109.619 124.24C109.619 123.878 109.763 123.531 110.019 123.275C110.275 123.019 110.622 122.875 110.984 122.875C111.346 122.875 111.693 123.019 111.949 123.275C112.205 123.531 112.349 123.878 112.349 124.24C112.349 124.602 112.205 124.95 111.949 125.206C111.693 125.462 111.346 125.606 110.984 125.606ZM97.3327 125.606C96.9706 125.606 96.6234 125.462 96.3674 125.206C96.1114 124.95 95.9676 124.602 95.9676 124.24C95.9676 123.878 96.1114 123.531 96.3674 123.275C96.6234 123.019 96.9706 122.875 97.3327 122.875C97.6947 122.875 98.0419 123.019 98.298 123.275C98.554 123.531 98.6978 123.878 98.6978 124.24C98.6978 124.602 98.554 124.95 98.298 125.206C98.0419 125.462 97.6947 125.606 97.3327 125.606ZM97.3327 111.954C96.9706 111.954 96.6234 111.811 96.3674 111.555C96.1114 111.299 95.9676 110.951 95.9676 110.589C95.9676 110.227 96.1114 109.88 96.3674 109.624C96.6234 109.368 96.9706 109.224 97.3327 109.224C97.6947 109.224 98.042 109.368 98.298 109.624C98.554 109.88 98.6978 110.227 98.6978 110.589C98.6978 110.951 98.554 111.299 98.298 111.555C98.0419 111.811 97.6947 111.954 97.3327 111.954ZM97.3327 98.3033C96.9706 98.3033 96.6234 98.1595 96.3674 97.9035C96.1114 97.6475 95.9676 97.3002 95.9676 96.9382C95.9676 96.5761 96.1114 96.2289 96.3674 95.9729C96.6234 95.7169 96.9706 95.5731 97.3327 95.5731C97.6947 95.5731 98.042 95.7169 98.298 95.9729C98.554 96.2289 98.6978 96.5761 98.6978 96.9382C98.6978 97.3002 98.554 97.6475 98.298 97.9035C98.042 98.1595 97.6947 98.3033 97.3327 98.3033ZM83.6815 98.3033C83.3195 98.3033 82.9723 98.1595 82.7163 97.9035C82.4603 97.6475 82.3164 97.3002 82.3164 96.9382C82.3164 96.5761 82.4603 96.2289 82.7163 95.9729C82.9723 95.7169 83.3195 95.5731 83.6815 95.5731C84.0436 95.5731 84.3908 95.7169 84.6468 95.9729C84.9028 96.2289 85.0467 96.5761 85.0467 96.9382C85.0467 97.3002 84.9028 97.6475 84.6468 97.9035C84.3908 98.1595 84.0436 98.3033 83.6815 98.3033ZM83.6815 111.954C83.3195 111.954 82.9723 111.811 82.7163 111.555C82.4603 111.299 82.3164 110.951 82.3164 110.589C82.3164 110.227 82.4603 109.88 82.7163 109.624C82.9723 109.368 83.3195 109.224 83.6815 109.224C84.0436 109.224 84.3908 109.368 84.6468 109.624C84.9028 109.88 85.0467 110.227 85.0467 110.589C85.0467 110.951 84.9028 111.299 84.6468 111.555C84.3908 111.811 84.0436 111.954 83.6815 111.954ZM83.6815 125.606C83.3195 125.606 82.9723 125.462 82.7163 125.206C82.4603 124.95 82.3164 124.602 82.3164 124.24C82.3164 123.878 82.4603 123.531 82.7163 123.275C82.9723 123.019 83.3195 122.875 83.6815 122.875C84.0436 122.875 84.3908 123.019 84.6468 123.275C84.9028 123.531 85.0467 123.878 85.0467 124.24C85.0467 124.602 84.9028 124.95 84.6468 125.206C84.3908 125.462 84.0436 125.606 83.6815 125.606ZM83.6815 84.6522C83.3195 84.6522 82.9723 84.5083 82.7163 84.2523C82.4603 83.9963 82.3164 83.6491 82.3164 83.287C82.3164 82.925 82.4603 82.5778 82.7163 82.3218C82.9723 82.0658 83.3195 81.9219 83.6816 81.9219C84.0436 81.9219 84.3908 82.0658 84.6468 82.3218C84.9028 82.5778 85.0467 82.925 85.0467 83.287C85.0467 83.6491 84.9028 83.9963 84.6468 84.2523C84.3908 84.5083 84.0436 84.6522 83.6815 84.6522ZM70.0304 98.3033C69.6684 98.3033 69.3211 98.1595 69.0651 97.9035C68.8091 97.6475 68.6653 97.3002 68.6653 96.9382C68.6653 96.5761 68.8091 96.2289 69.0651 95.9729C69.3211 95.7169 69.6684 95.5731 70.0304 95.5731C70.3925 95.5731 70.7397 95.7169 70.9957 95.9729C71.2517 96.2289 71.3955 96.5761 71.3955 96.9382C71.3955 97.3002 71.2517 97.6475 70.9957 97.9035C70.7397 98.1595 70.3925 98.3033 70.0304 98.3033ZM70.0304 111.954C69.6684 111.954 69.3211 111.811 69.0651 111.555C68.8091 111.299 68.6653 110.951 68.6653 110.589C68.6653 110.227 68.8091 109.88 69.0651 109.624C69.3211 109.368 69.6684 109.224 70.0304 109.224C70.3925 109.224 70.7397 109.368 70.9957 109.624C71.2517 109.88 71.3955 110.227 71.3955 110.589C71.3955 110.951 71.2517 111.299 70.9957 111.555C70.7397 111.811 70.3925 111.954 70.0304 111.954ZM70.0304 125.606C69.6684 125.606 69.3211 125.462 69.0651 125.206C68.8091 124.95 68.6653 124.602 68.6653 124.24C68.6653 123.878 68.8091 123.531 69.0651 123.275C69.3211 123.019 69.6684 122.875 70.0304 122.875C70.3925 122.875 70.7397 123.019 70.9957 123.275C71.2517 123.531 71.3955 123.878 71.3955 124.24C71.3955 124.602 71.2517 124.95 70.9957 125.206C70.7397 125.462 70.3925 125.606 70.0304 125.606ZM70.0304 84.6522C69.6684 84.6522 69.3211 84.5083 69.0651 84.2523C68.8091 83.9963 68.6653 83.6491 68.6653 83.287C68.6653 82.925 68.8091 82.5778 69.0651 82.3218C69.3211 82.0658 69.6684 81.9219 70.0304 81.9219C70.3925 81.9219 70.7397 82.0658 70.9957 82.3218C71.2517 82.5778 71.3955 82.925 71.3955 83.287C71.3955 83.6491 71.2517 83.9963 70.9957 84.2523C70.7397 84.5083 70.3925 84.6522 70.0304 84.6522ZM70.0304 71.001C69.6684 71.001 69.3211 70.8572 69.0651 70.6012C68.8091 70.3452 68.6653 69.998 68.6653 69.6359C68.6653 69.2739 68.8091 68.9266 69.0651 68.6706C69.3211 68.4146 69.6684 68.2708 70.0304 68.2708C70.3925 68.2708 70.7397 68.4146 70.9957 68.6706C71.2517 68.9266 71.3955 69.2739 71.3955 69.6359C71.3955 69.998 71.2517 70.3452 70.9957 70.6012C70.7397 70.8572 70.3925 71.001 70.0304 71.001ZM56.3793 98.3033C56.0172 98.3033 55.67 98.1595 55.414 97.9035C55.158 97.6474 55.0142 97.3002 55.0142 96.9382C55.0142 96.5761 55.158 96.2289 55.414 95.9729C55.67 95.7169 56.0172 95.5731 56.3793 95.5731C56.7413 95.5731 57.0886 95.7169 57.3446 95.9729C57.6006 96.2289 57.7444 96.5761 57.7444 96.9382C57.7444 97.3002 57.6006 97.6474 57.3446 97.9035C57.0886 98.1595 56.7413 98.3033 56.3793 98.3033ZM56.3793 111.954C56.0172 111.954 55.67 111.811 55.414 111.555C55.158 111.299 55.0142 110.951 55.0142 110.589C55.0142 110.227 55.158 109.88 55.414 109.624C55.67 109.368 56.0172 109.224 56.3793 109.224C56.7413 109.224 57.0886 109.368 57.3446 109.624C57.6006 109.88 57.7444 110.227 57.7444 110.589C57.7444 110.951 57.6006 111.299 57.3446 111.555C57.0886 111.811 56.7413 111.954 56.3793 111.954ZM56.3793 125.606C56.0172 125.606 55.67 125.462 55.414 125.206C55.158 124.95 55.0142 124.602 55.0142 124.24C55.0142 123.878 55.158 123.531 55.414 123.275C55.67 123.019 56.0172 122.875 56.3793 122.875C56.7413 122.875 57.0886 123.019 57.3446 123.275C57.6006 123.531 57.7444 123.878 57.7444 124.24C57.7444 124.602 57.6006 124.95 57.3446 125.206C57.0886 125.462 56.7413 125.606 56.3793 125.606ZM56.3793 84.6522C56.0172 84.6522 55.67 84.5083 55.414 84.2523C55.158 83.9963 55.0142 83.6491 55.0142 83.287C55.0142 82.925 55.158 82.5778 55.414 82.3218C55.67 82.0658 56.0172 81.9219 56.3793 81.9219C56.7413 81.9219 57.0886 82.0658 57.3446 82.3218C57.6006 82.5778 57.7444 82.925 57.7444 83.287C57.7444 83.6491 57.6006 83.9963 57.3446 84.2523C57.0886 84.5083 56.7413 84.6522 56.3793 84.6522ZM56.3793 71.001C56.0172 71.001 55.67 70.8572 55.414 70.6012C55.158 70.3452 55.0142 69.998 55.0142 69.6359C55.0142 69.2739 55.158 68.9266 55.414 68.6706C55.67 68.4146 56.0172 68.2708 56.3793 68.2708C56.7413 68.2708 57.0886 68.4146 57.3446 68.6706C57.6006 68.9266 57.7444 69.2739 57.7444 69.6359C57.7444 69.998 57.6006 70.3452 57.3446 70.6012C57.0886 70.8572 56.7413 71.001 56.3793 71.001ZM56.3793 57.3499C56.0172 57.3499 55.67 57.2061 55.414 56.9501C55.158 56.6941 55.0142 56.3468 55.0142 55.9848C55.0142 55.6227 55.158 55.2755 55.414 55.0195C55.67 54.7635 56.0172 54.6197 56.3793 54.6197C56.7413 54.6197 57.0886 54.7635 57.3446 55.0195C57.6006 55.2755 57.7444 55.6227 57.7444 55.9848C57.7444 56.3468 57.6006 56.6941 57.3446 56.9501C57.0886 57.2061 56.7413 57.3499 56.3793 57.3499ZM42.7282 98.3033C42.3661 98.3033 42.0189 98.1595 41.7629 97.9034C41.5069 97.6474 41.363 97.3002 41.363 96.9382C41.363 96.5761 41.5069 96.2289 41.7629 95.9729C42.0189 95.7169 42.3661 95.5731 42.7282 95.5731C43.0902 95.5731 43.4374 95.7169 43.6934 95.9729C43.9494 96.2289 44.0933 96.5761 44.0933 96.9382C44.0933 97.3002 43.9494 97.6474 43.6934 97.9034C43.4374 98.1595 43.0902 98.3033 42.7282 98.3033ZM42.7282 111.954C42.3661 111.954 42.0189 111.811 41.7629 111.555C41.5069 111.299 41.363 110.951 41.363 110.589C41.363 110.227 41.5069 109.88 41.7629 109.624C42.0189 109.368 42.3661 109.224 42.7282 109.224C43.0902 109.224 43.4374 109.368 43.6934 109.624C43.9494 109.88 44.0933 110.227 44.0933 110.589C44.0933 110.951 43.9494 111.299 43.6934 111.555C43.4374 111.811 43.0902 111.954 42.7282 111.954ZM42.7282 125.606C42.3661 125.606 42.0189 125.462 41.7629 125.206C41.5069 124.95 41.363 124.602 41.363 124.24C41.363 123.878 41.5069 123.531 41.7629 123.275C42.0189 123.019 42.3661 122.875 42.7282 122.875C43.0902 122.875 43.4374 123.019 43.6934 123.275C43.9494 123.531 44.0933 123.878 44.0933 124.24C44.0933 124.602 43.9494 124.95 43.6934 125.206C43.4374 125.462 43.0902 125.606 42.7282 125.606ZM42.7282 84.6522C42.3661 84.6522 42.0189 84.5083 41.7629 84.2523C41.5069 83.9963 41.363 83.6491 41.363 83.287C41.363 82.925 41.5069 82.5778 41.7629 82.3218C42.0189 82.0657 42.3661 81.9219 42.7282 81.9219C43.0902 81.9219 43.4374 82.0658 43.6934 82.3218C43.9494 82.5778 44.0933 82.925 44.0933 83.287C44.0933 83.6491 43.9494 83.9963 43.6934 84.2523C43.4374 84.5083 43.0902 84.6522 42.7282 84.6522ZM42.7282 71.001C42.3661 71.001 42.0189 70.8572 41.7629 70.6012C41.5069 70.3452 41.363 69.998 41.363 69.6359C41.363 69.2739 41.5069 68.9266 41.7629 68.6706C42.0189 68.4146 42.3661 68.2708 42.7282 68.2708C43.0902 68.2708 43.4374 68.4146 43.6934 68.6706C43.9495 68.9266 44.0933 69.2739 44.0933 69.6359C44.0933 69.998 43.9495 70.3452 43.6934 70.6012C43.4374 70.8572 43.0902 71.001 42.7282 71.001ZM42.7282 57.3499C42.3661 57.3499 42.0189 57.2061 41.7629 56.9501C41.5069 56.694 41.3631 56.3468 41.3631 55.9848C41.3631 55.6227 41.5069 55.2755 41.7629 55.0195C42.0189 54.7635 42.3661 54.6197 42.7282 54.6197C43.0902 54.6197 43.4374 54.7635 43.6934 55.0195C43.9495 55.2755 44.0933 55.6227 44.0933 55.9848C44.0933 56.3468 43.9495 56.694 43.6934 56.9501C43.4374 57.2061 43.0902 57.3499 42.7282 57.3499ZM42.7282 43.6988C42.3661 43.6988 42.0189 43.5549 41.7629 43.2989C41.5069 43.0429 41.3631 42.6957 41.3631 42.3336C41.3631 41.9716 41.5069 41.6244 41.7629 41.3684C42.0189 41.1124 42.3661 40.9685 42.7282 40.9685C43.0902 40.9685 43.4374 41.1124 43.6934 41.3684C43.9495 41.6244 44.0933 41.9716 44.0933 42.3336C44.0933 42.6957 43.9495 43.0429 43.6934 43.2989C43.4374 43.5549 43.0902 43.6988 42.7282 43.6988ZM29.077 98.3033C28.715 98.3033 28.3678 98.1595 28.1117 97.9034C27.8557 97.6474 27.7119 97.3002 27.7119 96.9382C27.7119 96.5761 27.8557 96.2289 28.1117 95.9729C28.3678 95.7169 28.715 95.5731 29.077 95.5731C29.4391 95.5731 29.7863 95.7169 30.0423 95.9729C30.2983 96.2289 30.4421 96.5761 30.4421 96.9382C30.4421 97.3002 30.2983 97.6474 30.0423 97.9034C29.7863 98.1595 29.4391 98.3033 29.077 98.3033ZM29.077 111.954C28.715 111.954 28.3677 111.811 28.1117 111.555C27.8557 111.299 27.7119 110.951 27.7119 110.589C27.7119 110.227 27.8557 109.88 28.1117 109.624C28.3677 109.368 28.715 109.224 29.077 109.224C29.4391 109.224 29.7863 109.368 30.0423 109.624C30.2983 109.88 30.4421 110.227 30.4421 110.589C30.4421 110.951 30.2983 111.299 30.0423 111.555C29.7863 111.811 29.4391 111.954 29.077 111.954ZM29.077 125.606C28.715 125.606 28.3677 125.462 28.1117 125.206C27.8557 124.95 27.7119 124.602 27.7119 124.24C27.7119 123.878 27.8557 123.531 28.1117 123.275C28.3677 123.019 28.715 122.875 29.077 122.875C29.4391 122.875 29.7863 123.019 30.0423 123.275C30.2983 123.531 30.4421 123.878 30.4421 124.24C30.4421 124.602 30.2983 124.95 30.0423 125.206C29.7863 125.462 29.4391 125.606 29.077 125.606ZM29.077 84.6522C28.715 84.6522 28.3678 84.5083 28.1117 84.2523C27.8557 83.9963 27.7119 83.6491 27.7119 83.287C27.7119 82.925 27.8557 82.5778 28.1117 82.3218C28.3678 82.0657 28.715 81.9219 29.077 81.9219C29.4391 81.9219 29.7863 82.0657 30.0423 82.3218C30.2983 82.5778 30.4421 82.925 30.4421 83.287C30.4421 83.6491 30.2983 83.9963 30.0423 84.2523C29.7863 84.5083 29.4391 84.6522 29.077 84.6522ZM29.077 71.001C28.715 71.001 28.3678 70.8572 28.1117 70.6012C27.8557 70.3452 27.7119 69.998 27.7119 69.6359C27.7119 69.2739 27.8557 68.9266 28.1117 68.6706C28.3678 68.4146 28.715 68.2708 29.077 68.2708C29.4391 68.2708 29.7863 68.4146 30.0423 68.6706C30.2983 68.9266 30.4421 69.2739 30.4421 69.6359C30.4421 69.998 30.2983 70.3452 30.0423 70.6012C29.7863 70.8572 29.4391 71.001 29.077 71.001ZM29.077 57.3499C28.715 57.3499 28.3678 57.2061 28.1117 56.9501C27.8557 56.694 27.7119 56.3468 27.7119 55.9848C27.7119 55.6227 27.8557 55.2755 28.1117 55.0195C28.3678 54.7635 28.715 54.6197 29.077 54.6197C29.4391 54.6197 29.7863 54.7635 30.0423 55.0195C30.2983 55.2755 30.4421 55.6227 30.4421 55.9848C30.4421 56.3468 30.2983 56.694 30.0423 56.9501C29.7863 57.2061 29.4391 57.3499 29.077 57.3499ZM29.077 43.6988C28.715 43.6988 28.3678 43.5549 28.1118 43.2989C27.8557 43.0429 27.7119 42.6957 27.7119 42.3336C27.7119 41.9716 27.8557 41.6244 28.1118 41.3684C28.3678 41.1124 28.715 40.9685 29.077 40.9685C29.4391 40.9685 29.7863 41.1124 30.0423 41.3684C30.2983 41.6244 30.4421 41.9716 30.4421 42.3336C30.4421 42.6957 30.2983 43.0429 30.0423 43.2989C29.7863 43.5549 29.4391 43.6988 29.077 43.6988ZM29.077 30.0476C28.715 30.0476 28.3678 29.9038 28.1118 29.6478C27.8557 29.3918 27.7119 29.0446 27.7119 28.6825C27.7119 28.3205 27.8557 27.9732 28.1118 27.7172C28.3678 27.4612 28.715 27.3174 29.077 27.3174C29.4391 27.3174 29.7863 27.4612 30.0423 27.7172C30.2983 27.9732 30.4421 28.3205 30.4421 28.6825C30.4421 29.0446 30.2983 29.3918 30.0423 29.6478C29.7863 29.9038 29.4391 30.0476 29.077 30.0476ZM15.4259 98.3033C15.0638 98.3033 14.7166 98.1595 14.4606 97.9034C14.2046 97.6474 14.0608 97.3002 14.0608 96.9382C14.0608 96.5761 14.2046 96.2289 14.4606 95.9729C14.7166 95.7169 15.0638 95.5731 15.4259 95.5731C15.7879 95.5731 16.1352 95.7169 16.3912 95.9729C16.6472 96.2289 16.791 96.5761 16.791 96.9382C16.791 97.3002 16.6472 97.6474 16.3912 97.9034C16.1352 98.1595 15.7879 98.3033 15.4259 98.3033ZM15.4259 111.954C15.0638 111.954 14.7166 111.811 14.4606 111.555C14.2046 111.299 14.0608 110.951 14.0608 110.589C14.0608 110.227 14.2046 109.88 14.4606 109.624C14.7166 109.368 15.0638 109.224 15.4259 109.224C15.7879 109.224 16.1352 109.368 16.3912 109.624C16.6472 109.88 16.791 110.227 16.791 110.589C16.791 110.951 16.6472 111.299 16.3912 111.555C16.1352 111.811 15.7879 111.954 15.4259 111.954ZM15.4259 125.606C15.0638 125.606 14.7166 125.462 14.4606 125.206C14.2046 124.95 14.0608 124.602 14.0608 124.24C14.0608 123.878 14.2046 123.531 14.4606 123.275C14.7166 123.019 15.0638 122.875 15.4259 122.875C15.7879 122.875 16.1352 123.019 16.3912 123.275C16.6472 123.531 16.791 123.878 16.791 124.24C16.791 124.602 16.6472 124.95 16.3912 125.206C16.1352 125.462 15.7879 125.606 15.4259 125.606ZM15.4259 84.6521C15.0638 84.6521 14.7166 84.5083 14.4606 84.2523C14.2046 83.9963 14.0608 83.6491 14.0608 83.287C14.0608 82.925 14.2046 82.5778 14.4606 82.3217C14.7166 82.0657 15.0638 81.9219 15.4259 81.9219C15.7879 81.9219 16.1352 82.0657 16.3912 82.3217C16.6472 82.5778 16.791 82.925 16.791 83.287C16.791 83.6491 16.6472 83.9963 16.3912 84.2523C16.1352 84.5083 15.7879 84.6521 15.4259 84.6521ZM15.4259 71.001C15.0638 71.001 14.7166 70.8572 14.4606 70.6012C14.2046 70.3452 14.0608 69.998 14.0608 69.6359C14.0608 69.2739 14.2046 68.9266 14.4606 68.6706C14.7166 68.4146 15.0638 68.2708 15.4259 68.2708C15.788 68.2708 16.1352 68.4146 16.3912 68.6706C16.6472 68.9266 16.791 69.2739 16.791 69.6359C16.791 69.998 16.6472 70.3452 16.3912 70.6012C16.1352 70.8572 15.7879 71.001 15.4259 71.001ZM15.4259 57.3499C15.0639 57.3499 14.7166 57.2061 14.4606 56.9501C14.2046 56.694 14.0608 56.3468 14.0608 55.9848C14.0608 55.6227 14.2046 55.2755 14.4606 55.0195C14.7166 54.7635 15.0639 54.6197 15.4259 54.6197C15.788 54.6197 16.1352 54.7635 16.3912 55.0195C16.6472 55.2755 16.791 55.6227 16.791 55.9848C16.791 56.3468 16.6472 56.694 16.3912 56.9501C16.1352 57.2061 15.788 57.3499 15.4259 57.3499ZM15.4259 43.6988C15.0639 43.6988 14.7166 43.5549 14.4606 43.2989C14.2046 43.0429 14.0608 42.6957 14.0608 42.3336C14.0608 41.9716 14.2046 41.6244 14.4606 41.3684C14.7166 41.1124 15.0639 40.9685 15.4259 40.9685C15.788 40.9685 16.1352 41.1124 16.3912 41.3684C16.6472 41.6244 16.791 41.9716 16.791 42.3336C16.791 42.6957 16.6472 43.0429 16.3912 43.2989C16.1352 43.5549 15.788 43.6988 15.4259 43.6988ZM15.4259 30.0476C15.0639 30.0476 14.7166 29.9038 14.4606 29.6478C14.2046 29.3918 14.0608 29.0446 14.0608 28.6825C14.0608 28.3205 14.2046 27.9732 14.4606 27.7172C14.7166 27.4612 15.0639 27.3174 15.4259 27.3174C15.788 27.3174 16.1352 27.4612 16.3912 27.7172C16.6472 27.9732 16.791 28.3205 16.791 28.6825C16.791 29.0446 16.6472 29.3918 16.3912 29.6478C16.1352 29.9038 15.788 30.0476 15.4259 30.0476ZM15.4259 16.3965C15.0639 16.3965 14.7166 16.2527 14.4606 15.9967C14.2046 15.7407 14.0608 15.3934 14.0608 15.0314C14.0608 14.6693 14.2046 14.3221 14.4606 14.0661C14.7166 13.8101 15.0639 13.6663 15.4259 13.6663C15.788 13.6663 16.1352 13.8101 16.3912 14.0661C16.6472 14.3221 16.791 14.6693 16.791 15.0314C16.791 15.3934 16.6472 15.7407 16.3912 15.9967C16.1352 16.2527 15.788 16.3965 15.4259 16.3965ZM1.77476 98.3033C1.41271 98.3033 1.06549 98.1595 0.809483 97.9034C0.553475 97.6474 0.409651 97.3002 0.409651 96.9382C0.409651 96.5761 0.553475 96.2289 0.809484 95.9729C1.06549 95.7169 1.41271 95.5731 1.77476 95.5731C2.13681 95.5731 2.48404 95.7169 2.74004 95.9729C2.99605 96.2289 3.13988 96.5761 3.13988 96.9382C3.13988 97.3002 2.99605 97.6474 2.74004 97.9034C2.48404 98.1595 2.13681 98.3033 1.77476 98.3033ZM1.77476 111.954C1.41271 111.954 1.06549 111.811 0.809481 111.555C0.553473 111.299 0.409649 110.951 0.409649 110.589C0.409649 110.227 0.553473 109.88 0.809481 109.624C1.06549 109.368 1.41271 109.224 1.77476 109.224C2.13681 109.224 2.48403 109.368 2.74004 109.624C2.99605 109.88 3.13987 110.227 3.13987 110.589C3.13987 110.951 2.99605 111.299 2.74004 111.555C2.48403 111.811 2.13681 111.954 1.77476 111.954ZM1.77476 125.606C1.41271 125.606 1.06549 125.462 0.809478 125.206C0.55347 124.95 0.409646 124.602 0.409646 124.24C0.409646 123.878 0.55347 123.531 0.809479 123.275C1.06549 123.019 1.41271 122.875 1.77476 122.875C2.13681 122.875 2.48403 123.019 2.74004 123.275C2.99605 123.531 3.13987 123.878 3.13987 124.24C3.13987 124.602 2.99605 124.95 2.74004 125.206C2.48403 125.462 2.13681 125.606 1.77476 125.606ZM1.77477 84.6521C1.41272 84.6521 1.06549 84.5083 0.809486 84.2523C0.553477 83.9963 0.409653 83.6491 0.409653 83.287C0.409653 82.925 0.553478 82.5778 0.809486 82.3217C1.06549 82.0657 1.41272 81.9219 1.77477 81.9219C2.13682 81.9219 2.48404 82.0657 2.74005 82.3217C2.99606 82.5778 3.13988 82.925 3.13988 83.287C3.13988 83.6491 2.99606 83.9963 2.74005 84.2523C2.48404 84.5083 2.13682 84.6521 1.77477 84.6521ZM1.77477 71.001C1.41272 71.001 1.0655 70.8572 0.809488 70.6012C0.55348 70.3452 0.409656 69.9979 0.409656 69.6359C0.409656 69.2738 0.55348 68.9266 0.809488 68.6706C1.0655 68.4146 1.41272 68.2708 1.77477 68.2708C2.13682 68.2708 2.48404 68.4146 2.74005 68.6706C2.99606 68.9266 3.13988 69.2738 3.13988 69.6359C3.13988 69.9979 2.99606 70.3452 2.74005 70.6012C2.48404 70.8572 2.13682 71.001 1.77477 71.001ZM1.77477 57.3499C1.41272 57.3499 1.0655 57.2061 0.80949 56.9501C0.553482 56.694 0.409658 56.3468 0.409658 55.9848C0.409658 55.6227 0.553482 55.2755 0.809491 55.0195C1.0655 54.7635 1.41272 54.6197 1.77477 54.6197C2.13682 54.6197 2.48404 54.7635 2.74005 55.0195C2.99606 55.2755 3.13988 55.6227 3.13988 55.9848C3.13988 56.3468 2.99606 56.694 2.74005 56.9501C2.48404 57.2061 2.13682 57.3499 1.77477 57.3499ZM1.77477 43.6988C1.41272 43.6988 1.0655 43.5549 0.809493 43.2989C0.553484 43.0429 0.409661 42.6957 0.409661 42.3336C0.409661 41.9716 0.553485 41.6244 0.809493 41.3684C1.0655 41.1124 1.41272 40.9685 1.77477 40.9685C2.13682 40.9685 2.48405 41.1124 2.74005 41.3684C2.99606 41.6244 3.13989 41.9716 3.13989 42.3336C3.13989 42.6957 2.99606 43.0429 2.74005 43.2989C2.48405 43.5549 2.13682 43.6988 1.77477 43.6988ZM1.77478 30.0476C1.41273 30.0476 1.0655 29.9038 0.809495 29.6478C0.553487 29.3918 0.409663 29.0446 0.409663 28.6825C0.409663 28.3205 0.553487 27.9732 0.809495 27.7172C1.0655 27.4612 1.41273 27.3174 1.77478 27.3174C2.13683 27.3174 2.48405 27.4612 2.74006 27.7172C2.99607 27.9732 3.13989 28.3205 3.13989 28.6825C3.13989 29.0446 2.99607 29.3918 2.74006 29.6478C2.48405 29.9038 2.13683 30.0476 1.77478 30.0476ZM1.77478 16.3965C1.41273 16.3965 1.06551 16.2527 0.809498 15.9967C0.553489 15.7407 0.409665 15.3934 0.409665 15.0314C0.409665 14.6693 0.553489 14.3221 0.809498 14.0661C1.06551 13.8101 1.41273 13.6663 1.77478 13.6663C2.13683 13.6663 2.48405 13.8101 2.74006 14.0661C2.99607 14.3221 3.13989 14.6693 3.13989 15.0314C3.13989 15.3934 2.99607 15.7407 2.74006 15.9967C2.48405 16.2527 2.13683 16.3965 1.77478 16.3965ZM1.77478 2.74536C1.41273 2.74536 1.06551 2.60154 0.8095 2.34553C0.553492 2.08952 0.409668 1.7423 0.409668 1.38025C0.409668 1.0182 0.553492 0.670977 0.8095 0.414969C1.06551 0.158961 1.41273 0.0151369 1.77478 0.015137C2.13683 0.015137 2.48405 0.158961 2.74006 0.414969C2.99607 0.670978 3.13989 1.0182 3.13989 1.38025C3.13989 1.7423 2.99607 2.08952 2.74006 2.34553C2.48405 2.60154 2.13683 2.74536 1.77478 2.74536Z" fill="#262F3E"/>
</svg>
